<?xml version="1.0" encoding="utf-8"?>
<!-- Generator: Adobe Illustrator 25.2.1, SVG Export Plug-In . SVG Version: 6.00 Build 0)  -->
<svg version="1.1" id="Camada_1" xmlns="http://www.w3.org/2000/svg" xmlns:xlink="http://www.w3.org/1999/xlink" x="0px" y="0px"
	 viewBox="0 0 1000 1000" style="enable-background:new 0 0 1000 1000;" xml:space="preserve">
<style type="text/css">
	.st0{fill:#FFFFFF;}
</style>
<rect x="0" class="st0" width="1000" height="1000"/>
<g>
	<path d="M200.6,678.1V316h243.5v55.7H265v98.9h166.2V525H265v153.1H200.6z"/>
	<path d="M579.9,684c-25.3,0-47.4-5.6-66.5-16.9c-19-11.3-33.8-26.9-44.4-46.9c-10.5-20-15.8-43.3-15.8-69.9
		c0-26.7,5.3-50.2,15.8-70.5c10.5-20.2,25.3-36,44.4-47.3c19-11.3,41.2-16.9,66.5-16.9c25.3,0,47.4,5.6,66.3,16.9
		c19,11.3,33.7,27,44.4,47.3c10.6,20.3,15.9,43.7,15.9,70.5c0,26.6-5.3,49.9-15.9,69.9c-10.6,20-25.4,35.6-44.4,46.9
		C627.3,678.3,605.2,684,579.9,684z M579.9,632.9c13.1,0,24.5-3.4,34.1-10.1c9.6-6.7,17.1-16.3,22.4-28.7
		c5.3-12.4,7.9-27.1,7.9-44.1c0-17.2-2.6-32-7.9-44.4c-5.3-12.4-12.7-22-22.4-28.7c-9.6-6.7-21-10.1-34.1-10.1
		c-13.1,0-24.5,3.4-34.1,10.1c-9.6,6.7-17.1,16.3-22.4,28.7c-5.3,12.4-7.9,27.2-7.9,44.4c0,17.2,2.6,31.9,7.9,44.2
		c5.3,12.3,12.7,21.8,22.2,28.6C555.2,629.6,566.6,632.9,579.9,632.9z"/>
	<path d="M730.9,678.1v-67.3h68.5v67.3H730.9z"/>
</g>
</svg>
