<?xml version="1.0" encoding="utf-8"?>
<!-- Generator: Adobe Illustrator 25.2.1, SVG Export Plug-In . SVG Version: 6.00 Build 0)  -->
<svg version="1.1" id="Camada_1" xmlns="http://www.w3.org/2000/svg" xmlns:xlink="http://www.w3.org/1999/xlink" x="0px" y="0px"
	 viewBox="0 0 120 120" style="enable-background:new 0 0 120 120;" xml:space="preserve">
<style type="text/css">
	.st0{fill:#FFFFFF;}
</style>
<rect width="120" height="120"/>
<g>
	<path class="st0" d="M24.1,81.4V37.9h29.2v6.7H31.8v11.9h19.9V63H31.8v18.4H24.1z"/>
	<path class="st0" d="M69.6,82.1c-3,0-5.7-0.7-8-2c-2.3-1.4-4.1-3.2-5.3-5.6C55,72,54.4,69.2,54.4,66c0-3.2,0.6-6,1.9-8.5
		c1.3-2.4,3-4.3,5.3-5.7c2.3-1.4,4.9-2,8-2c3,0,5.7,0.7,8,2s4,3.2,5.3,5.7c1.3,2.4,1.9,5.2,1.9,8.5c0,3.2-0.6,6-1.9,8.4
		c-1.3,2.4-3,4.3-5.3,5.6C75.3,81.4,72.6,82.1,69.6,82.1z M69.6,76c1.6,0,2.9-0.4,4.1-1.2c1.2-0.8,2.1-2,2.7-3.4s0.9-3.3,0.9-5.3
		c0-2.1-0.3-3.8-0.9-5.3c-0.6-1.5-1.5-2.6-2.7-3.4c-1.2-0.8-2.5-1.2-4.1-1.2c-1.6,0-2.9,0.4-4.1,1.2c-1.2,0.8-2.1,2-2.7,3.4
		c-0.6,1.5-0.9,3.3-0.9,5.3c0,2.1,0.3,3.8,0.9,5.3c0.6,1.5,1.5,2.6,2.7,3.4C66.6,75.5,68,76,69.6,76z"/>
	<path class="st0" d="M87.7,81.4v-8.1h8.2v8.1H87.7z"/>
</g>
</svg>
